<mxfile host="app.diagrams.net" modified="2022-03-25T22:24:40.430Z" agent="5.0 (Windows NT 10.0; Win64; x64) AppleWebKit/537.36 (KHTML, like Gecko) Chrome/99.0.4844.82 Safari/537.36" etag="--iK1ABu4FIgnKiVPdIG" version="16.6.5" type="github">
  <diagram id="kgpKYQtTHZ0yAKxKKP6v" name="Page-1">
    <mxGraphModel dx="1209" dy="674" grid="1" gridSize="10" guides="1" tooltips="1" connect="1" arrows="1" fold="1" page="1" pageScale="1" pageWidth="850" pageHeight="1100" math="0" shadow="0">
      <root>
        <mxCell id="0" />
        <mxCell id="1" parent="0" />
        <mxCell id="3nuBFxr9cyL0pnOWT2aG-1" value=":Checkout" style="shape=umlLifeline;perimeter=lifelinePerimeter;container=1;collapsible=0;recursiveResize=0;rounded=0;shadow=0;strokeWidth=1;size=40;fontStyle=4" parent="1" vertex="1">
          <mxGeometry x="220" y="130" width="100" height="290" as="geometry" />
        </mxCell>
        <mxCell id="3nuBFxr9cyL0pnOWT2aG-4" value="" style="points=[];perimeter=orthogonalPerimeter;rounded=0;shadow=0;strokeWidth=1;" parent="3nuBFxr9cyL0pnOWT2aG-1" vertex="1">
          <mxGeometry x="45" y="90" width="10" height="170" as="geometry" />
        </mxCell>
        <mxCell id="UaTKeeJQNvYMFY2GXGw0-1" value="Checkout Clerk" style="shape=umlActor;verticalLabelPosition=bottom;verticalAlign=top;html=1;outlineConnect=0;" vertex="1" parent="1">
          <mxGeometry x="80" y="130" width="30" height="60" as="geometry" />
        </mxCell>
        <mxCell id="UaTKeeJQNvYMFY2GXGw0-10" value=":LibraryData" style="shape=umlLifeline;perimeter=lifelinePerimeter;container=1;collapsible=0;recursiveResize=0;rounded=0;shadow=0;strokeWidth=1;size=40;fontStyle=4" vertex="1" parent="1">
          <mxGeometry x="540" y="170" width="100" height="270" as="geometry" />
        </mxCell>
        <mxCell id="UaTKeeJQNvYMFY2GXGw0-11" value="" style="points=[];perimeter=orthogonalPerimeter;rounded=0;shadow=0;strokeWidth=1;" vertex="1" parent="UaTKeeJQNvYMFY2GXGw0-10">
          <mxGeometry x="45" y="90" width="10" height="110" as="geometry" />
        </mxCell>
        <mxCell id="UaTKeeJQNvYMFY2GXGw0-12" value=":Record" style="shape=umlLifeline;perimeter=lifelinePerimeter;container=1;collapsible=0;recursiveResize=0;rounded=0;shadow=0;strokeWidth=1;size=40;fontStyle=4" vertex="1" parent="1">
          <mxGeometry x="390" y="120" width="100" height="280" as="geometry" />
        </mxCell>
        <mxCell id="UaTKeeJQNvYMFY2GXGw0-13" value="" style="points=[];perimeter=orthogonalPerimeter;rounded=0;shadow=0;strokeWidth=1;" vertex="1" parent="UaTKeeJQNvYMFY2GXGw0-12">
          <mxGeometry x="45" y="90" width="10" height="160" as="geometry" />
        </mxCell>
        <mxCell id="UaTKeeJQNvYMFY2GXGw0-14" value="" style="endArrow=none;dashed=1;html=1;rounded=0;" edge="1" parent="1" target="UaTKeeJQNvYMFY2GXGw0-1">
          <mxGeometry width="50" height="50" relative="1" as="geometry">
            <mxPoint x="95" y="410" as="sourcePoint" />
            <mxPoint x="94" y="270" as="targetPoint" />
          </mxGeometry>
        </mxCell>
        <mxCell id="UaTKeeJQNvYMFY2GXGw0-15" value="" style="endArrow=classic;html=1;rounded=0;" edge="1" parent="1">
          <mxGeometry width="50" height="50" relative="1" as="geometry">
            <mxPoint x="100" y="230" as="sourcePoint" />
            <mxPoint x="260" y="230" as="targetPoint" />
          </mxGeometry>
        </mxCell>
        <mxCell id="UaTKeeJQNvYMFY2GXGw0-24" value="RequestCheckout" style="edgeLabel;html=1;align=center;verticalAlign=middle;resizable=0;points=[];" vertex="1" connectable="0" parent="UaTKeeJQNvYMFY2GXGw0-15">
          <mxGeometry x="-0.1292" y="-1" relative="1" as="geometry">
            <mxPoint as="offset" />
          </mxGeometry>
        </mxCell>
        <mxCell id="UaTKeeJQNvYMFY2GXGw0-18" value="" style="endArrow=classic;html=1;rounded=0;entryX=0.457;entryY=0.416;entryDx=0;entryDy=0;entryPerimeter=0;" edge="1" parent="1" target="UaTKeeJQNvYMFY2GXGw0-10">
          <mxGeometry width="50" height="50" relative="1" as="geometry">
            <mxPoint x="275" y="282" as="sourcePoint" />
            <mxPoint x="575" y="280" as="targetPoint" />
          </mxGeometry>
        </mxCell>
        <mxCell id="UaTKeeJQNvYMFY2GXGw0-27" value="CheckData&lt;br&gt;Available" style="edgeLabel;html=1;align=center;verticalAlign=middle;resizable=0;points=[];" vertex="1" connectable="0" parent="UaTKeeJQNvYMFY2GXGw0-18">
          <mxGeometry x="0.3818" y="4" relative="1" as="geometry">
            <mxPoint x="30" as="offset" />
          </mxGeometry>
        </mxCell>
        <mxCell id="UaTKeeJQNvYMFY2GXGw0-19" value="" style="endArrow=classic;html=1;rounded=0;exitX=0.4;exitY=0.667;exitDx=0;exitDy=0;exitPerimeter=0;dashed=1;" edge="1" parent="1" source="UaTKeeJQNvYMFY2GXGw0-10" target="3nuBFxr9cyL0pnOWT2aG-1">
          <mxGeometry width="50" height="50" relative="1" as="geometry">
            <mxPoint x="290" y="290" as="sourcePoint" />
            <mxPoint x="340" y="240" as="targetPoint" />
          </mxGeometry>
        </mxCell>
        <mxCell id="UaTKeeJQNvYMFY2GXGw0-29" value="ChangeData" style="edgeLabel;html=1;align=center;verticalAlign=middle;resizable=0;points=[];" vertex="1" connectable="0" parent="UaTKeeJQNvYMFY2GXGw0-19">
          <mxGeometry x="-0.6307" y="-2" relative="1" as="geometry">
            <mxPoint as="offset" />
          </mxGeometry>
        </mxCell>
        <mxCell id="UaTKeeJQNvYMFY2GXGw0-21" value="" style="endArrow=classic;html=1;rounded=0;dashed=1;entryX=0.577;entryY=0.623;entryDx=0;entryDy=0;entryPerimeter=0;" edge="1" parent="1" source="UaTKeeJQNvYMFY2GXGw0-12" target="3nuBFxr9cyL0pnOWT2aG-1">
          <mxGeometry width="50" height="50" relative="1" as="geometry">
            <mxPoint x="290" y="450" as="sourcePoint" />
            <mxPoint x="340" y="400" as="targetPoint" />
          </mxGeometry>
        </mxCell>
        <mxCell id="UaTKeeJQNvYMFY2GXGw0-28" value="AddToRecord" style="edgeLabel;html=1;align=center;verticalAlign=middle;resizable=0;points=[];" vertex="1" connectable="0" parent="UaTKeeJQNvYMFY2GXGw0-21">
          <mxGeometry x="-0.3098" y="-1" relative="1" as="geometry">
            <mxPoint x="-23" y="-5" as="offset" />
          </mxGeometry>
        </mxCell>
        <mxCell id="UaTKeeJQNvYMFY2GXGw0-22" value="" style="endArrow=classic;html=1;rounded=0;entryX=0.756;entryY=0.16;entryDx=0;entryDy=0;entryPerimeter=0;" edge="1" parent="1" source="3nuBFxr9cyL0pnOWT2aG-1" target="UaTKeeJQNvYMFY2GXGw0-13">
          <mxGeometry width="50" height="50" relative="1" as="geometry">
            <mxPoint x="290" y="450" as="sourcePoint" />
            <mxPoint x="340" y="400" as="targetPoint" />
          </mxGeometry>
        </mxCell>
        <mxCell id="UaTKeeJQNvYMFY2GXGw0-25" value="CheckRecord&lt;br&gt;RecordIsGood" style="edgeLabel;html=1;align=center;verticalAlign=middle;resizable=0;points=[];" vertex="1" connectable="0" parent="UaTKeeJQNvYMFY2GXGw0-22">
          <mxGeometry x="-0.3887" y="-2" relative="1" as="geometry">
            <mxPoint x="28" as="offset" />
          </mxGeometry>
        </mxCell>
        <mxCell id="UaTKeeJQNvYMFY2GXGw0-23" value="" style="endArrow=classic;html=1;rounded=0;exitX=0.506;exitY=0.833;exitDx=0;exitDy=0;exitPerimeter=0;dashed=1;" edge="1" parent="1" source="3nuBFxr9cyL0pnOWT2aG-1">
          <mxGeometry width="50" height="50" relative="1" as="geometry">
            <mxPoint x="290" y="450" as="sourcePoint" />
            <mxPoint x="90" y="370" as="targetPoint" />
          </mxGeometry>
        </mxCell>
      </root>
    </mxGraphModel>
  </diagram>
</mxfile>
